<?xml version="1.0" encoding="utf-8"?>
<!-- Generator: Adobe Illustrator 17.0.0, SVG Export Plug-In . SVG Version: 6.00 Build 0)  -->
<!DOCTYPE svg PUBLIC "-//W3C//DTD SVG 1.1//EN" "http://www.w3.org/Graphics/SVG/1.1/DTD/svg11.dtd">
<svg version="1.1" id="Capa_1" focusable="false" xmlns="http://www.w3.org/2000/svg" xmlns:xlink="http://www.w3.org/1999/xlink"
	 x="0px" y="0px" width="500px" height="500px" viewBox="0 0 500 500" enable-background="new 0 0 500 500" xml:space="preserve">
<path d="M403.223,94.824c-40.918-41.016-95.41-63.574-153.32-63.574c-119.531,0-216.797,97.266-216.797,216.797
	c0,38.184,9.961,75.488,28.906,108.398L31.25,468.75l114.941-30.176c31.641,17.285,67.285,26.367,103.613,26.367h0.098
	c119.434,0,218.848-97.266,218.848-216.797C468.75,190.234,444.141,135.84,403.223,94.824z M249.902,428.418
	c-32.422,0-64.16-8.691-91.797-25.098l-6.543-3.906l-68.164,17.871l18.164-66.504l-4.297-6.836
	c-18.066-28.711-27.539-61.816-27.539-95.898c0-99.316,80.859-180.176,180.273-180.176c48.145,0,93.359,18.75,127.344,52.832
	S432.227,200,432.129,248.145C432.129,347.559,349.219,428.418,249.902,428.418z M348.73,293.457
	c-5.371-2.734-32.031-15.82-37.012-17.578c-4.98-1.855-8.594-2.734-12.207,2.734c-3.613,5.469-13.965,17.578-17.188,21.289
	c-3.125,3.613-6.348,4.102-11.719,1.367c-31.836-15.918-52.734-28.418-73.73-64.453c-5.566-9.57,5.566-8.887,15.918-29.59
	c1.758-3.613,0.879-6.738-0.488-9.473c-1.367-2.734-12.207-29.395-16.699-40.234c-4.395-10.547-8.887-9.082-12.207-9.277
	c-3.125-0.195-6.738-0.195-10.352-0.195c-3.613,0-9.473,1.367-14.453,6.738c-4.98,5.469-18.945,18.555-18.945,45.215
	s19.434,52.441,22.07,56.055c2.734,3.613,38.184,58.301,92.578,81.836c34.375,14.844,47.852,16.113,65.039,13.574
	c10.449-1.563,32.031-13.086,36.523-25.781s4.492-23.535,3.125-25.781C357.715,297.461,354.102,296.094,348.73,293.457z"/>
</svg>
